<?xml version="1.0" encoding="UTF-8"?>
<svg id="Layer_2" data-name="Layer 2" xmlns="http://www.w3.org/2000/svg" xmlns:xlink="http://www.w3.org/1999/xlink" viewBox="0 0 372.26 372.26">
  <defs>
    <style>
      .cls-1, .cls-2, .cls-3 {
        fill: #fbae17;
      }

      .cls-4 {
        fill: #fff;
      }

      .cls-5 {
        fill: #003223;
      }

      .cls-6, .cls-7 {
        fill: none;
      }

      .cls-8 {
        fill: #48991d;
      }

      .cls-7 {
        stroke: #aed136;
        stroke-miterlimit: 10;
        stroke-width: 2px;
      }

      .cls-2 {
        font-family: AcuminConcept-WideMedium, 'Acumin Variable Concept';
        font-size: 35.06px;
        font-variation-settings: 'wght' 500, 'wdth' 115, 'slnt' 0;
        font-weight: 500;
      }

      .cls-9 {
        clip-path: url(#clippath);
      }

      .cls-3 {
        font-family: AcuminConcept-WideBold, 'Acumin Variable Concept';
        font-size: 36.18px;
        font-variation-settings: 'wght' 700, 'wdth' 115, 'slnt' 0;
        font-weight: 700;
      }
    </style>
    <clipPath id="clippath">
      <circle class="cls-6" cx="186.13" cy="186.13" r="115"/>
    </clipPath>
  </defs>
  <g id="Layer_1-2" data-name="Layer 1">
    <g>
      <circle class="cls-5" cx="186.13" cy="186.13" r="186.13"/>
      <circle class="cls-7" cx="186.13" cy="186.13" r="179.27"/>
      <circle class="cls-4" cx="186.13" cy="186.13" r="115"/>
      <g>
        <text class="cls-3" transform="translate(45.67 182.66) rotate(-83.42)"><tspan x="0" y="0">P</tspan></text>
        <text class="cls-3" transform="translate(48.45 156.13) rotate(-71.55)"><tspan x="0" y="0">O</tspan></text>
        <text class="cls-3" transform="translate(58.13 127.81) rotate(-60.42)"><tspan x="0" y="0">L</tspan></text>
        <text class="cls-3" transform="translate(69.41 107.73) rotate(-50.85)"><tspan x="0" y="0">L</tspan></text>
        <text class="cls-3" transform="translate(84.34 89.86) rotate(-43.57)"><tspan x="0" y="0">I</tspan></text>
        <text class="cls-3" transform="translate(92.64 80.92) rotate(-34.75)"><tspan x="0" y="0">N</tspan></text>
        <text class="cls-3" transform="translate(117.26 63.83) rotate(-22.72)"><tspan x="0" y="0">A</tspan></text>
        <text class="cls-3" transform="translate(140.34 54.01) rotate(-13.09)"><tspan x="0" y="0">T</tspan></text>
        <text class="cls-3" transform="translate(164.13 48.87) rotate(-5.37)"><tspan x="0" y="0">I</tspan></text>
        <text class="cls-3" transform="translate(176.4 46.98) rotate(3.45)"><tspan x="0" y="0">O</tspan></text>
        <text class="cls-3" transform="translate(206.17 48.63) rotate(15.87)"><tspan x="0" y="0">N</tspan></text>
        <text class="cls-3" transform="translate(235.15 57.61) rotate(24.23)"><tspan x="0" y="0"> </tspan></text>
        <text class="cls-3" transform="translate(244.11 60.88) rotate(32.11)"><tspan x="0" y="0">A</tspan></text>
        <text class="cls-3" transform="translate(267.68 75.76) rotate(42.97)"><tspan x="0" y="0">F</tspan></text>
        <text class="cls-3" transform="translate(285.62 92.14) rotate(53.6)"><tspan x="0" y="0">R</tspan></text>
        <text class="cls-3" transform="translate(301.61 114.68) rotate(61.91)"><tspan x="0" y="0">I</tspan></text>
        <text class="cls-3" transform="translate(308.03 125.3) rotate(70.58)"><tspan x="0" y="0">C</tspan></text>
        <text class="cls-3" transform="translate(317.5 151.84) rotate(82.25)"><tspan x="0" y="0">A</tspan></text>
        <text class="cls-2" transform="translate(92.97 307.4) rotate(33.86)"><tspan x="0" y="0">S</tspan></text>
        <text class="cls-2" transform="translate(123.03 326.35) rotate(19.97)"><tspan x="0" y="0">U</tspan></text>
        <text class="cls-2" transform="translate(160.42 338.75) rotate(4.12)"><tspan x="0" y="0">M</tspan></text>
        <text class="cls-2" transform="translate(205.76 340.43) rotate(-12.72)"><tspan x="0" y="0">M</tspan></text>
        <text class="cls-2" transform="translate(248.32 328.46) rotate(-24.99)"><tspan x="0" y="0">I</tspan></text>
        <text class="cls-2" transform="translate(266.82 319.51) rotate(-35)"><tspan x="0" y="0">T</tspan></text>
      </g>
      <g class="cls-9">
        <g>
          <g id="Africa">
            <path class="cls-1" d="M279.96,194.19v.09s0,.05-.01.07c0,.08-.02.16-.04.23h0c-.04.18-.12.31-.24.36-.03.01-.06.02-.09.03l-.18.18-.02.21-.27,3.38-.97,1.51c-.15.36-.32.69-.51,1h0s0,.01,0,.01c-.2.33-.43.63-.69.88l-2.61,7.53-1.92,2.47s-.03.04-.04.06l-1.13,1.93-.03.05c-.37.71-1.13,1.52-1.77,2.18-.6.67-1.44,1.5-2.12,1.88l-.11.52-2.77,2.63-1.45.74c-.9.88-6.62,6.51-7.65,7.52l-2.22,2.49.02.02c-.36.59-.81,1.11-1.53,1.17l-.19.19c-.16.38-.33.73-.59,1.02,0,0-.11.12-.11.12-.25.24-.57.43-.99.53-.24.5-.99,2.01-1.42,2.81-.43.88-.88,1.75-1.41,2.53-.18.3-.34.53-.46.65l-.2.25-.03.04-1.5,4.23.15.74.49.69c.53.6,1.25,1.15,1.55,1.77-.14.14-.25.3-.34.47-.18.36-.37.97-.36,1.92,0,.28.03.58.06.88l-.36.41.65,1.42c-.13.23-.09.51.04.8h0s0,.01,0,.01l.83,1.32.22,1.83s0,0,0,0c.14.03,2.88.75,1.4,4.52l-.9.9.09,2.99-.05.88s0,0,0,.01l-.17,3.02.5.76.14.54-.21.82-.82,1.23.29.32-.07.75-1.11.87s-.02.02-.03.03l-1.51,1.16-.09.78-2.62,1.76h-1.13s-4.52,2.21-4.52,2.21c-.21.34-.65,1.06-.85,1.39l-1.37,1.51-.3-.62s-4.05,3.49-4.24,3.65h0c-.03.06-.21.51-.21,1.05,0,.24.04.51.14.76h0s0,0,0,0c.12.29.36.58.65.76l.53,4.01.65.22c-.02.06-1.02,3.86-1.07,4.03h0s-.19.73-.19.73l.71.24-1.43,1.91c-.1.1-.21.19-.33.27l-6.1,2.41s-.42.67-.61,1.31c-.03.26-.03.52-.08.77l.76-.29-.25.87-.48,1.8c-.16.65-.32,1.29-.51,1.9h0s-.75,3.05-2.78,3.69l-14.76,13.71-2.49-.04-.22.83c-.19-.04-.36-.06-.51-.09l-.51.52-1.34-.03-3.23-.53-.61.05c-.73.4-.93-.11-1.39-.17-.35-.03-.64-.04-.88-.03-.5.02-1.08.12-1.31.45-.02.04-.05.08-.07.12,0,0-.16.38-.46.44-.3.06-2.74.02-2.74.02-.36.04-.6.09-.77.14-.14.06-.28.14-.38.26-.09.12-.12.26-.28.37l-1.87-.15-1.24-.89c-.1-.07-.2-.14-.3-.22l-.07-.05s-.02-.01-.04-.03c-.38-.29-.69-.64-.94-1.05-.35-.48-.71-1.1-.96-1.85,0,0,0,0,0,0l-.43-.84c-.17-.11-.24-.23-.24-.35l-.16-.23.35-.23,1-2.26v-.35s-4.71-9.48-4.71-9.48l-3.37-3.75-.76-4.3c-.56-.92-.23-1.83-.29-2.74l-1.11-2.34-.16-5.06-6.2-11.02c-.27-.2-.61-.55-.8-.82-1.29-1.64-3.35-5.89.16-14.27,0,0,2.09-3.05,4.39-4.88.04-.18.08-.38.12-.57l.53-3.6c-.4-.29-.72-.71-.98-1.2h0s0-.02,0-.02c-.19-.35-.35-.73-.49-1.13-.29-.75-.48-1.43-.54-1.7,0-.04-.03-.08-.03-.11,0,0,0-.01,0-.01-.03-.08-.05-.16-.07-.24l.62-.6c.03-1.99-.45-3.35-1.07-4.56-.01-.02-.02-.03-.03-.05-.33-.51-.67-1.2-.98-1.81-.26-.48-.49-.97-.68-1.51-.02-.03-.02-.05-.02-.05h0s-.02,0-.02,0l-.26-1.04-.04-.19c-.08-.13-.15-.25-.19-.36-.01-.02-.02-.04-.03-.06-.03-.08-.06-.16-.08-.22-.01-.03-.02-.07-.02-.09,0-.03-.01-.05-.01-.08,0-.06,0-.1,0-.13,0-.03.01-.05.02-.08,0-.2,0-.4-.05-.59l-8.53-9.83-1.26-3.22,1.16-1.12.33-1.81.34-.66.41-1.84-.78-.66,1.33-2.56-.04-.05.06-.09.45-3.27-1.12-1.44.17-.87-.78.18s-1.09.27-1.46-1.52c-.42-.05-.7-.15-.88-.27h0c-.4-.27-.3-.61-.3-.61l-.58.17-.21.81c-.06,0-.12,0-.18,0-.13,0-.27,0-.39,0-.09,0-.18,0-.28-.02-.09,0-.18-.02-.26-.02-.02,0-.02,0-.04,0-.09-.01-.19-.02-.28-.03h0c-.06,0-.11-.02-.17-.03-.05,0-.09-.02-.13-.02-.09-.02-.19-.04-.28-.05-.04-.01-.09-.02-.13-.03-.02,0-.05-.01-.08-.02-.12-.03-.23-.05-.34-.08-.12-.03-.42-.13-.46-.15,0,0-3.8,3.1-5.15-1.68,0,0-1.17-3.21-3.83-3.53h-.94s-7.69.94-7.69.94l-.08.12c-.2.42-.37.91-.9.64l-.19-.05-.89.15-6.55,2.76-.56.24-3.4-1.25h0s-.86-.09-.86-.09l-11.05,2.21-.21.06h-.06s-.04-.01-.04-.01l-1.02-.1h0s-.02-.01-.02-.01l-2.52-.88-8.85-7.25h-.01s-2.3-1.16-2.3-1.16c-.34-.31-1.18-1.08-1.5-1.38-.06-.03-.12-.07-.19-.1,0-.1,0-.2,0-.29h0c-.23-.3-.8-1.01-1.04-1.31l-.17-2.48-.89-1.64c-.28-.3-.87-.95-1.02-1.12-.02-.02-.04-.03-.07-.05-.02,0-.03-.02-.05-.03-.02,0-.03-.01-.04-.02-.04-.02-.11-.05-.2-.1h0c-.32-.2-.85-.72-.87-1.92l-.52-.05c.01-.15.02-.27,0-.36,0-.06,0-.11-.02-.15-.02-.07-.04-.1-.08-.12-.07-.02-.16.08-.25.19l-.64-.25-1-1.13-.11-1.77-1.31.12h0c-.19-.17-.42-.21-.59-.21l-.21.02-.02-.12h0s-.05-.24-.05-.24c0,0,0-.01,0-.02l-.08-.39c-.15-.06-.93-.38-1.05-.43l-.25-.06-.67-.48.55-.87c.04-.12.79-2.59.85-2.8,0,0,0,0,0,0h0s-.09-.83-.09-.83c-.16-.53-.41-1.02-.72-1.5-.03-.06-.08-.12-.12-.18l-1.04-1.11.48-.36c.13-.15.28-.29.43-.43h.01c.06-.06.11-.11.17-.16h0c.22-.2,1.03-.89,1.27-1.09.08-.22.3-.81.39-1.03.03-.2.12-.79.15-1h0s.77-1.47.77-1.47l1.27-3.52.13-4.16-.79-1.25c.42-.74,1.7-1.43.86-3.64-.09-.25-.55-.12-.55-.12l-.54-1.63-.06-.23-.22-.63c.01-.09.02-.17.03-.25l1.24-2.18c.95-.64,1.66-1.45,1.83-2.68l4.7-5.38,1.2-3.05.74-.81h0s0,0,0,0l.69-.4c.45-.18.83-.42,1.16-.7h0s0,0,0,0c.88-.75,1.44-1.84,2.23-3.06l.35-.27,1.83-.5c.62-.13,1.01-.22,1.5-.41,1.2-.46,2.08-1.08,2.51-1.41h0s.12-.1.16-.13c.03-.03.06-.05.08-.07l.02-.02s.02-.02.03-.03c.02-.01.08-.04.12-.06.1-.05.21-.12.32-.18.03-.01.05-.03.07-.04.02-.01.04-.02.06-.03.51-.29.94-.61,1.31-.94,0,0,.02-.01.03-.02.78-.68,1.52-1.6,1.66-2.71.04-.19.05-.37.05-.54-.02-.06-.04-.12-.06-.18-.01-.09-.03-.18-.05-.27,0,0,0,0,0-.03,0,0,0-.02,0-.02,0-.11,0-.42.05-.84.2-1.09.86-2.28,1.33-2.88.13-.14.27-.28.42-.42.06-.04.12-.08.17-.12.03-.02.06-.04.08-.06.02-.02.05-.03.07-.05.1-.08.19-.15.27-.23.03-.03.06-.06.08-.08.03-.04.06-.07.09-.11.01-.02.02-.03.03-.05.01-.02.02-.04.03-.05,0-.02.02-.04.02-.05.08-.22.08-.41,0-.69h0s0,0,0,0c1.55-1.85,3.8-3.25,6.92-4.11.17-.23.34-.5.52-.77l2.08-3.06s1.03-1.03,1.04-1.04h.01s.26-.17.26-.17c.28-.16.55-.24.83-.22,0,0,0,0,0,0,.01.04.07.22.2.47h0c.01.05.12.56.7,1t0,0c.29.29.62.48,1.03.57,0,0,0,0,0,0,.23.05.49.08.78.07.06,0,.11,0,.17,0h0c.39.02.84.01,1.35-.05l1.97.21c.17.23.42.31.71.39.11.02,1.14.19,1.22.21,0,.03.02.05.03.08.03-.01.06-.02.11-.02h0s.34.04.76-.08h.02c.07-.02.13-.04.2-.07.35-.11.74-.34,1-.73.12-.17.25-.38.4-.58,0,0,0,0,0,0,.03-.04.17-.28.39-.44.19-.16.4-.23.63-.15.02,0,.04.01.06.02.49.13,1.11.23,1.61.14.02,0,.01,0,.03,0,.13-.03.24-.08.3-.14,0,0,0,0,0,0,.02-.02.03-.04.04-.07,0,0,0,0,0,0,0-.01,0-.02,0-.03,0-.03.01-.05.03-.08l.25-.35s0,0,.03-.03c.2-.2.51-.42.89-.6.4-.21.92-.4,1.48-.42h0c.2-.02.42-.03.63-.03.35-.02.72-.05,1.08-.07h0c.9-.07,1.71-.15,1.85-.16.01,0,.02,0,.02,0,.68-.1,1.89-.28,2.56-.39l2.54-.32h.19c.38-.02.69,0,.92.07.26.04.54.09.87.1.88-.02,1.75-.32,2.57-.52h0s.16-.11.6-.1c.03,0,.07,0,.1,0,.02,0,.04,0,.05,0,.02,0,.04,0,.05,0,0,0,.01,0,.01,0l.14.03c.21.06.39.18.57.28,0,0,0,0,.01,0,0,0,0,0,.01,0,.03.02.09.06.18.09,0,0,.02,0,.02,0,.21.08.44.11.75-.01l.09-.05c.1-.04.2-.09.3-.17,0,0,.02-.01.03-.02.02-.01.04-.02.06-.03h0s0,0,0,0c.07-.02.17-.02.29,0h0c.96.26,1.93.82,3.03.53.02-.01.03-.02.03-.02.02-.03.04-.06.06-.08,0,0,0,0,0,0,1.18-1.57,3.19-.53,3.71-.55l.12.2h0s.34.87.34.87c.04.09.02.19.17.1h0s.06-.04.1-.07c.13-.09.3-.23.47-.37l.46-.35h.01c.09-.06.16-.08.17-.03.04.16.13.25.22.37h0s.18.28.18.28h0c.06.13.08.26,0,.39l-1.37,1-.04.03s0,0,0,0c-.02.02-.03.04-.04.06-.24.74-.16,1.06.05,1.27h0c.07.07.16.13.25.18,0,0,0,0,0,0,0,0,.02.01.03.01.02,0,.03.02.05.03h0s0,0,0,0c.65.34.97.57.98,1.76-.02.16-.06.33-.12.51t0,0h0s-.46.61-.46.61h0s-.01.02-.01.02l-1.17,1.03h0c-.72.58-1.42,1.09-1.61,1.32,0,.01-.02.04-.03.06,0,.02-.02.04-.02.07-.03.13-.01.34.26.59t0,0c.15.18.34.35.52.45.02.01.02.02.02.02.05.03.14,0,.25-.07h.01c.09-.06.21-.13.32-.21h0s.62-.4.62-.4h0s.01,0,.01,0l.07-.03h.02s0,0,0,0c.03,0,.06,0,.08,0,.27.11.37.25.46.59,0,0,0,.02,0,.03.03.14.06.28.09.41.03.14.05.26.09.42h0c.01.07.03.14.04.21,0,.02,0,.04.01.05.01.06.03.11.06.15,0,0,0,0,0,0,.14.21.44.18.66.2.77.74,2.02,1.33,5.07,1.06.05.01.12.04.17.05l5.22,1.64c-.96,1.43,1.19,2.99,2.53,3.23,1.91.42,4.67,1.17,5.62,1.43.38.46.76.78,1.12.98.03.02.06.03.08.05.04.02.08.04.13.06.03.01.06.03.09.04.07.03.13.05.2.07h0c.22.06.42.08.64.06h.07s.06-.01.06-.01c.24-.04.46-.12.67-.24h0c.31-.18.57-.43.8-.71h0c.05-.06.09-.13.14-.19h0s0-.01,0-.01c.38-.58.66-1.33.48-1.95h0s0-.02-.02-.06l.21-2.8,1.77-1.18c1.2-.34,3.05-.36,5.83.24,0,0,0,0,0,0-.09.39-.01.68.17.88,0,0,0,0,0,0,.62.63,2.8.5,3.82.62.01,0,.02,0,.03,0,.68.1,1.31.2,1.51.85.01.05.02.1.03.16,0,0-.02,0-.03.02.2.13.39.25.6.34h0s0,0,0,0c.2.08.41.12.64.1h0c.14-.02.3-.06.46-.14.05-.02.09-.05.14-.08.06-.01.12-.02.18-.02h0l8.81,1.79,3.78-2.21c.09.16.19.24.31.28,0,0,0,0,0,0,.07.02.15.03.23.02h0s.03,0,.03,0c.27-.04.51-.17.77-.28l2.41-.21c1.92,2,3.84,1.46,5.76.12l2.84,5.79-.63,4.21-.37.55c-.13.07-.28.08-.42.12l-.09.03-2.37-2.28-.08-.33c.01-.12.03-.24-.09-.37l-2.42-3.24-.22,1.32c.46.75,1.39,2.28,1.85,3.03h0s0,0,0,0c.5.6,1.1,1.14,1.81,1.6l.03,1.09,5.4,8.93,1.71,1.41-.55.32.56,2.49c.48.5,1.13.88,1.78,1.26h0s0,0,0,0c1.29.76,2.56,1.52,2.4,3.2l.92.98c.25,1.5,1.06,6.42,1.16,7.04,0,0,0,0,0,0,.9.43,1.88.63,2.37,1.63.17.04.36.03.53.08,0,0,0,0,0,0,.16.05.31.16.44.42h0c1.2,1.22,2.31,3.07,2.46,5.77l1.34,1.95c.13.43.26.85.43,1.05.04.05.2.19.39.08l-.17-.92,1.05,1.22c.09.14.2.27.33.38l.11.24.15-.1.14-.39.04-.02.61.12c.11.14.21.29.33.42.16.17.37.35.61.43.18.06.38.06.62,0,.45.43.96.8,1.36,1.26l1.35,1.25c.09.05.16.12.23.21h0s0,0,0,0c.09.05,2.8,1.59,3.77,3.63.09.16.17.33.21.52,0,0,0,0,0,.01,0,0,0,0,0,.01,0,0,0,0,0,.01.04.19.06.39.04.59h0c-.02.17-.05.34-.11.51l-1.62,1.31s0,0,0,0c.06-.02.63-.16,1.22-.04.22.05.44.13.64.27h0s.08.06.13.1c.04.03.07.07.1.1.02.02.04.04.06.06.02.02.04.04.06.06,0,0,0,0,0,0,.38.4.72.85,1.08,1.27,0,0,0,0,0,0,0,0,0,0,0,0,.38.45.79.86,1.29,1.15,0,0,.02.01.02.01.57.33,1.27.47,2.19.3.2-.06.4-.14.61-.25l.07-.05,1.66-1.19,1.93.26,1.11-.21h0l.83-.51c.15-.14.62-.58.77-.71l1.05.19h0l1.04-.08s0,0,0,0l.58-.2s0,0,.01,0l.71-.45c.05.02.11.02.17.03.15-.02.43-.07.95-.24.12-.04.25-.09.38-.13.09-.03.19-.07.29-.1,0,0,0,0,.01,0h.01c.17-.06.34-.1.52-.14h.01s0,0,0,0c.16-.03.33-.06.5-.08,0,0,.03,0,.07,0,0,0,.02,0,.03,0,.76-.07,1.45-.34,2.05-.72.22-.13.42-.29.6-.45h0s.25-.74,1.98.05v.94s-.36.63-.36.63l.38.53.03.96c.02.29.04.58.03.83Z"/>
            <path class="cls-1" d="M280.93,277.91s0,0,0,0l-.83-9.06-1.61-1.74-.93.77-.35,2.25-.43.61-.56-.09-.02.54-.8.88-.81-.67-.02,1.09-.13.67h-.02s-.28-.03-.28-.03l-.56.9.93.69-.75.14-.61.44-.26-.41-.33.04-.8.8.89.81-.61.66-.8.03-.05-.76h0l-.3-.02h0l-.37.15h0s0,0,0,0c-.14.09-.28.2-.42.32h0s-.69.54-.69.54l.73,1.19-.89.18-.02-.09-.21-1.15-1.64.29-1.09.86.09-.81-.04-.17-.97,1.07-1.59.06-.12,1.25-1.94,2.81.71,1.17.42,3.63h0s.15,1.6.15,1.6l-1.02,2.18h0s-1.54,2.3-1.55,2.31c-.28.18-.51.36-.72.55l-.87,1.11h0s-.4,1.53-.4,1.54h0s-.13,1.45-.13,1.45v.08s.01.05.01.05l.34.76.03.03.29.32h0s.37,1.81.37,1.81l-.27,1.4h0s-.05.86-.05.86l.07.76.26.84.44.69.49.48h0s.62.44.62.44l.03.02.74.5h0s0,.01,0,.01c.03.02.65.44.65.44.18-.02.63-.05.82-.07.11-.06.24-.15.36-.22l.11-.07.66-.44c.09-.06.19-.11.29-.16l.59-.18h.44s.09.03.14.04h0c.08.03.16.05.24.06,0,0,.03,0,.03,0h.02c.48.09.95-.04,1.38-.23l.17-.07.15-.08c2.09-4.45,6.34-13.5,8.42-17.92.35-1.13.74-2.58,1.08-3.72h0s0-.01,0-.01l.89-2.34s.49-.5.82-1.13c.02-.03.03-.05.04-.08.05-.09.09-.19.13-.29,0-.01.01-.02.01-.04.21-.54.28-1.16-.02-1.75.01-.12.12-1.17.14-1.32h0s.02-.13.02-.13h0s.11-.23.11-.24l.19-.07s0,0,0,0c0,0,0,0,.01,0,0,0,.01,0,.02,0,.04.01.1.03.18.07.1.06.19.13.29.23l.26,1.05.35-.14.17-.18s0,0,0,0c.03-.01.17-.09.05-.63Z"/>
          </g>
          <g>
            <path class="cls-8" d="M172.26,236.62c.84,5.25,2.61,9.02,3.87,11.26,2.06,3.65,3.91,5.22,4.57,5.75,2.32,1.85,4.51,2.54,5.04,2.7,1.88.56,3.41.57,4.69.59.45,0,1.08,0,6.86-.43.12,0,.79-.06,1.68-.04,1.36.03,2.03.04,2.76.35.99.42,1.56,1.14,1.95,1.64.54.68.8,1.3,1.23,2.29.32.73.53,1.36.66,1.82.24.79.52,1.94.66,3.64.28,3.17-.1,5.98-.2,6.63-.43,3.04-1.19,5.2-1.92,7.27-.66,1.89-2.22,5.97-3.07,7.1-.08.11-.42.54-.61,1.17-.14.46-.15.88-.16,1.04,0,.28-.02.51.06.8.11.43.31.72.43.88.11.15.3.41.63.63.45.3.89.36,1.17.39.28.03.8.09,1.41-.16.14-.06.81-.34,1.25-1.04.26-.41.3-.74.39-1.11.27-1.11.79-1.74,1.09-2.29.85-1.49,1.85-5.29,2.33-8.78.24-1.74.61-4.67.2-8.5-.19-1.73-.54-4.73-2.07-8.33-1.58-3.72-3.6-6.12-4.2-6.82-2.9-3.35-5.95-5.04-7.47-5.86-3.73-2.02-7.23-2.84-9.7-3.19,1.17-.05,2.74-.03,4.55.23.35.05,1.56.24,3.01.65,1.58.44,4.9,1.41,8.33,4.03,2.5,1.91,4.18,4.04,5.28,5.73-.23-1.23-.64-2.87-1.45-4.69-.25-.57-.81-1.77-1.72-3.15-2.07-3.13-4.46-4.96-5.02-5.38-3.85-2.86-7.7-3.57-8.95-3.79-1.62-.28-3.31-.37-5.42-.49-1.62-.09-2.92-.11-5.22-.31-2.17-.19-2.98-.35-3.81-.63-1.4-.46-2.46-1.1-3.15-1.58Z"/>
            <path class="cls-8" d="M208.93,256.6c.25-1.3.72-3.12,1.68-5.14.87-1.83,3.11-5.89,7.78-8.86.79-.5,3.69-2.27,7.74-3.01,4.34-.79,8.54-.65,8.54-.65s2.12.07,4.71-.39c.63-.11,1.49-.3,2.48-.8.8-.41,1.39-.88,1.78-1.23-.11.68-.3,1.68-.59,2.87-.67,2.78-1.59,6.55-4.22,10.34-1.08,1.55-2.37,3.36-4.75,4.87-.66.42-2.34,1.4-4.71,1.92-.99.22-1.82.29-7.04.1-4.26-.16-4.78-.25-6.16-.12-2.42.24-4.35.87-5.61,1.37.63-.83,1.51-1.9,2.66-3.07,3.32-3.37,6.59-5.17,7.76-5.79,3.53-1.84,6.78-2.65,9.09-3.03-1.78-.1-4.23-.04-7.02.66-3.62.92-6.07,2.48-7.27,3.26-3.03,1.97-4.84,4.06-5.34,4.65-.66.79-1.17,1.5-1.52,2.03Z"/>
          </g>
          <g>
            <path d="M125.61,140.21c10.39-2.87,28.16-3.83,38.52-.55,6.4,2.03,6.61,6.8,10.02,12.21.95,1.51,3.52,2.92,3.11,4.72-9.26,12.58-28.39,20.54-43.68,21.93-33.05,3.02-41.35-29.09-7.97-38.32Z"/>
            <path d="M189.25,164.44c1.14-.43,3.62,1.3,5.08,1.63,2.47.55,10.89,1.32,12.01,2.08,1.35.91,5.32,7.44,6.31,9.27,7.38,13.58,15.35,40.56,3.06,53.12-5.76,5.88-15.08,6.46-21.6,1.52-16.17-12.26-17.03-51.85-4.86-67.63Z"/>
            <path d="M175.83,123.23c15.69-22.3,60.21,9.13,45.13,31.43-15.6,23.07-61.33-8.41-45.13-31.43Z"/>
            <path d="M179.22,218.03c-2.88.6-5.22,2.24-8.08,2.98-5.2,1.33-17.73,2.55-22.78,1.3-12.65-3.12-16.6-17.91-17.94-29.31-.35-2.96.06-6.31,0-9.3,1.27-.41,3.1-.94,4.36-.46.92.35,11.94,11.35,14.39,13.29,3.17,2.51,7.29,5.43,10.7,7.6,2.82,1.78,17.59,8.83,18.26,9.61.91,1.06.91,2.94,1.09,4.29Z"/>
            <path d="M177.35,207.09c-.67,1.05-10.57-4.64-11.89-5.44-2.62-1.6-24.87-17.5-24.04-19.18,15.76-4.12,30.17-10.09,40.75-22.88l2.29,2.09c-8.34,13.35-9.87,30.16-7.11,45.42Z"/>
            <path d="M211.56,96.43c-12.22-1.17-7.95-20.04,3.6-15.61,9.78,3.75,3.9,13.71.87,20.32-.89,1.95-6.36,13.03-7.62,13.05-.53,0-3.91-1.44-3.96-2.55,1.42-1.98,8.53-13.8,7.1-15.19Z"/>
            <path d="M246.19,101.92c10.51,7.89-5.52,22.72-12.7,10.2-1.14.01-1.71.87-2.46,1.48-2.65,2.13-7.25,9.25-9.01,10.35-1.38.86-2.45-3.25-3.97-3.45,4.41-4.73,8.57-9.99,13.39-14.32,4.15-3.73,8.98-8.6,14.76-4.26Z"/>
            <path d="M140.5,224.8l-5.34,3.95c.35-3.2,2.34-8.19,5.34-3.95Z"/>
          </g>
        </g>
      </g>
    </g>
  </g>
</svg>