<?xml version="1.0" encoding="UTF-8"?>
<svg id="Layer_2" data-name="Layer 2" xmlns="http://www.w3.org/2000/svg" viewBox="0 0 2947.47 811.06">
  <defs>
    <style>
      .cls-1 {
        letter-spacing: .03em;
      }

      .cls-2 {
        letter-spacing: .02em;
      }

      .cls-3 {
        fill: none;
        stroke: #fbae17;
        stroke-miterlimit: 10;
        stroke-width: 5px;
      }

      .cls-4, .cls-5 {
        fill: #fbae17;
      }

      .cls-6 {
        letter-spacing: .02em;
      }

      .cls-7 {
        letter-spacing: .01em;
      }

      .cls-8 {
        letter-spacing: .03em;
      }

      .cls-9 {
        letter-spacing: .03em;
      }

      .cls-5 {
        font-family: AcuminConcept-Bold, 'Acumin Variable Concept';
        font-size: 192px;
        font-variation-settings: 'wght' 700, 'wdth' 100, 'slnt' 0;
        font-weight: 700;
      }

      .cls-10 {
        font-family: InterV-Medium, 'Inter V';
        font-size: 163px;
        font-variation-settings: 'wght' 500, 'slnt' 0;
        font-weight: 500;
        letter-spacing: .33em;
      }

      .cls-11 {
        letter-spacing: -.05em;
      }

      .cls-12 {
        letter-spacing: .03em;
      }
    </style>
  </defs>
  <g id="Layer_1-2" data-name="Layer 1">
    <g id="Africa">
      <path class="cls-4" d="M760.93,293.73v.34c0,.06-.03.19-.04.26-.03.32-.08.62-.14.89h0c-.17.67-.45,1.17-.92,1.39-.1.05-.21.09-.33.11l-.67.69-.06.82-1.01,12.86-3.68,5.76c-.58,1.36-1.23,2.64-1.95,3.81v.03s-.03.01-.03.01c-.77,1.25-1.64,2.38-2.63,3.34l-9.94,28.68-7.31,9.39c-.05.08-.1.15-.16.23l-4.3,7.36-.1.17c-1.4,2.69-4.3,5.8-6.75,8.31-2.3,2.56-5.5,5.72-8.08,7.16l-.44,1.98-10.55,10.01-5.54,2.81c-3.41,3.36-25.21,24.8-29.13,28.66l-8.47,9.48.06.06c-1.38,2.24-3.1,4.24-5.84,4.47l-.73.72c-.59,1.43-1.27,2.79-2.26,3.9,0,0-.43.44-.44.45-.96.92-2.17,1.64-3.79,2.04-.93,1.92-3.79,7.65-5.4,10.71-1.66,3.36-3.37,6.66-5.35,9.66-.7,1.13-1.3,2-1.75,2.49l-.75.95-.1.17-5.71,16.11.58,2.84,1.86,2.64c2.02,2.27,4.77,4.37,5.91,6.74-.53.55-.95,1.16-1.3,1.8-.69,1.39-1.39,3.69-1.36,7.32.03,1.08.11,2.2.22,3.34l-1.39,1.55,2.46,5.41c-.49.88-.33,1.93.15,3.06h0s.01.04.01.04l3.15,5.02.83,6.98s0,0,.02,0c.53.13,10.98,2.87,5.35,17.22l-3.44,3.43.35,11.39-.18,3.34s.02.03.03.04l-.66,11.5,1.92,2.91.52,2.06-.81,3.14-3.14,4.69,1.1,1.22-.25,2.84-4.24,3.31s-.08.08-.11.12l-5.75,4.44-.35,2.99-9.97,6.72-4.29-.04-17.21,8.47c-.79,1.3-2.46,4.03-3.24,5.3l-5.23,5.76-1.16-2.38c-.14.12-15.45,13.32-16.14,13.91v.02c-.1.21-.82,1.91-.82,3.97,0,.92.13,1.93.55,2.89h0s0,.02,0,.02c.44,1.1,1.39,2.2,2.48,2.9l2,15.29,2.46.85c-.06.23-3.9,14.72-4.08,15.37h0s-.73,2.78-.73,2.78l2.72.93-5.43,7.26c-.39.37-.8.72-1.24,1.04l-23.23,9.19s-1.59,2.54-2.33,5.01c-.1.98-.12,1.96-.29,2.95l2.91-1.1-.96,3.32-1.83,6.84c-.6,2.48-1.21,4.93-1.95,7.25h0s-2.84,11.63-10.61,14.04l-56.22,52.25-9.5-.17-.82,3.16c-.71-.13-1.35-.24-1.93-.33l-1.93,1.98-5.12-.1-12.31-2.02-2.31.19c-2.77,1.51-3.53-.43-5.29-.66-1.33-.1-2.44-.13-3.37-.12-1.91.08-4.1.47-4.99,1.73-.09.15-.17.31-.25.46,0,0-.6,1.46-1.74,1.69-1.13.22-10.43.06-10.43.06-1.36.13-2.28.33-2.93.55-.55.22-1.06.54-1.44.98-.34.48-.46.98-1.08,1.42l-7.12-.58-4.74-3.39c-.39-.27-.78-.55-1.15-.83l-.25-.18s-.06-.04-.13-.11c-1.44-1.09-2.63-2.45-3.6-3.99-1.32-1.82-2.72-4.18-3.67-7.04,0,0,0,0,0,0l-1.64-3.21c-.65-.4-.9-.87-.91-1.35l-.59-.89,1.33-.86,3.83-8.63v-1.35s-17.95-36.12-17.95-36.12l-12.83-14.27-2.91-16.4c-2.15-3.49-.87-6.96-1.1-10.43l-4.21-8.92-.6-19.29-23.61-42c-1.03-.78-2.34-2.11-3.04-3.13-4.91-6.23-12.75-22.46.6-54.35,0,0,7.98-11.61,16.73-18.59.15-.7.31-1.43.45-2.18l2.04-13.71c-1.53-1.12-2.73-2.7-3.74-4.57l-.03-.03v-.04c-.73-1.32-1.34-2.77-1.89-4.32-1.12-2.87-1.82-5.43-2.04-6.48-.01-.15-.1-.3-.1-.44-.03-.02-.03-.04-.03-.04-.1-.31-.19-.6-.26-.91l2.38-2.29c.11-7.59-1.73-12.78-4.07-17.38-.04-.06-.08-.13-.1-.19-1.27-1.94-2.57-4.56-3.72-6.88-.98-1.82-1.86-3.69-2.58-5.76-.06-.12-.08-.21-.08-.21v-.02l-.06.02-.99-3.97-.17-.73c-.31-.51-.56-.97-.73-1.36-.04-.08-.08-.17-.1-.22-.12-.31-.22-.6-.29-.83-.04-.12-.06-.25-.06-.35-.02-.1-.04-.21-.04-.29-.02-.22-.02-.39,0-.51.02-.1.04-.21.06-.31-.03-.75-.02-1.51-.21-2.23l-32.49-37.44-4.81-12.27,4.42-4.26,1.24-6.89,1.28-2.52,1.55-7.02-2.95-2.52,5.08-9.77-.14-.21.22-.36,1.7-12.44-4.26-5.5.66-3.33-2.95.68s-4.17,1.03-5.58-5.78c-1.61-.19-2.66-.58-3.34-1.03h0c-1.52-1.03-1.16-2.34-1.16-2.34l-2.21.64-.8,3.08c-.23,0-.46,0-.7.01-.5,0-1.01,0-1.49-.01-.35-.02-.7-.02-1.05-.06-.35-.02-.68-.06-1.01-.08-.06,0-.08-.03-.15-.02-.35-.04-.72-.08-1.07-.12h-.02c-.21-.02-.44-.06-.64-.1-.19-.02-.35-.06-.51-.08-.36-.06-.74-.14-1.08-.21-.17-.04-.35-.08-.51-.1-.08-.02-.19-.04-.29-.06-.46-.12-.86-.2-1.28-.31-.46-.13-1.59-.49-1.75-.56,0,0-14.47,11.79-19.62-6.39,0,0-4.47-12.22-14.6-13.45l-3.58.03-29.29,3.56-.29.46c-.75,1.59-1.41,3.49-3.42,2.44l-.73-.18-3.4.57-24.95,10.51-2.12.91-12.95-4.75v.02l-3.29-.37-42.11,8.4-.78.23-.23-.02-.14-.03-3.9-.37v-.04h-.06l-9.58-3.36-33.7-27.61-.04.04-8.78-4.46c-1.28-1.18-4.49-4.12-5.73-5.26-.24-.13-.48-.25-.72-.37.02-.39.02-.76,0-1.1l-.02-.04c-.89-1.11-3.06-3.81-3.97-4.96l-.64-9.46-3.38-6.25c-1.06-1.13-3.3-3.62-3.88-4.26-.08-.06-.17-.12-.27-.19-.06-.03-.13-.06-.19-.11-.06-.03-.11-.05-.16-.09-.14-.06-.42-.17-.76-.4h0c-1.2-.76-3.24-2.73-3.32-7.33l-1.98-.21c.04-.58.06-1.01.02-1.39,0-.22-.02-.44-.06-.58-.06-.25-.17-.39-.29-.46-.25-.07-.6.3-.96.72l-2.45-.94-3.8-4.29-.41-6.73-4.98.46h-.01c-.72-.65-1.62-.79-2.27-.8l-.8.06-.08-.46h0s-.17-.92-.17-.92c0-.03,0-.04,0-.07l-.29-1.49c-.55-.22-3.53-1.43-4.01-1.63l-.95-.22-2.57-1.84,2.11-3.3c.15-.46,3-9.88,3.24-10.67,0-.01,0-.02.01-.03v-.02l-.35-3.16c-.6-2-1.57-3.88-2.73-5.72-.12-.23-.3-.46-.44-.68l-3.95-4.22,1.84-1.35c.5-.58,1.05-1.12,1.62-1.66l.04-.04c.21-.19.42-.38.64-.57h.01c.84-.76,3.93-3.39,4.83-4.17.31-.84,1.15-3.08,1.47-3.94.12-.76.45-3,.57-3.8h0s2.95-5.61,2.95-5.61l4.83-13.4.49-15.86-2.99-4.75c1.61-2.83,6.46-5.43,3.28-13.86-.35-.97-2.09-.46-2.09-.46l-2.06-6.2-.24-.89-.83-2.41c.04-.34.08-.66.12-.96l4.71-8.31c3.61-2.43,6.32-5.53,6.98-10.2l17.91-20.49,4.58-11.61,2.81-3.08.02-.02h.03s2.64-1.55,2.64-1.55c1.73-.68,3.16-1.59,4.43-2.66h.01s0-.02,0-.02c3.36-2.87,5.49-7,8.5-11.65l1.34-1.05,6.98-1.91c2.37-.5,3.83-.82,5.73-1.57,4.56-1.74,7.92-4.1,9.55-5.39l.03-.02c.19-.15.44-.35.59-.49.12-.1.22-.18.3-.25l.08-.07s.09-.08.12-.1c.09-.04.3-.15.46-.23.38-.2.82-.44,1.21-.67.1-.05.19-.11.28-.16.07-.04.14-.08.21-.13,1.93-1.1,3.58-2.33,4.98-3.6.03-.03.06-.05.1-.08,2.96-2.59,5.81-6.11,6.32-10.31.14-.73.21-1.42.21-2.05-.08-.22-.16-.46-.22-.7-.04-.34-.1-.69-.18-1.04,0,0,0-.03,0-.1,0-.03,0-.06,0-.09-.02-.44-.03-1.6.2-3.18.78-4.16,3.29-8.67,5.06-10.97.49-.55,1.02-1.08,1.61-1.6.23-.15.45-.3.65-.44.11-.07.21-.14.31-.22.08-.06.17-.12.25-.17.39-.3.74-.58,1.03-.86.11-.1.21-.21.3-.32.12-.14.24-.28.33-.43.04-.06.08-.12.11-.18.04-.07.08-.13.12-.21.03-.06.06-.13.09-.21.32-.84.29-1.57.01-2.64h0s0-.02.01-.03c5.91-7.04,14.5-12.36,26.35-15.65.63-.87,1.31-1.89,1.98-2.92l7.91-11.65s3.92-3.92,3.95-3.95l.04-.03.98-.63c1.06-.61,2.11-.92,3.16-.85,0,0,0,0,0,.02.04.13.28.84.77,1.79h0c.04.19.47,2.14,2.66,3.82t0,0c1.1,1.1,2.37,1.82,3.94,2.18.01,0,.02,0,.03,0,.88.2,1.86.29,2.96.26.21,0,.43,0,.65-.03h0c1.49.08,3.2.04,5.15-.19l7.5.82c.64.86,1.6,1.18,2.7,1.47.43.07,4.36.73,4.65.78.02.1.08.21.1.31.11-.04.24-.06.41-.08h0c.1.02,1.3.15,2.89-.3h.03l.04-.02c.25-.06.51-.15.77-.25,1.34-.4,2.82-1.28,3.83-2.78.46-.64.96-1.46,1.51-2.23,0,0,0,0,.01-.03.1-.17.63-1.05,1.47-1.68.72-.63,1.53-.88,2.39-.56.07.02.14.04.22.06,1.88.5,4.21.86,6.14.55.09-.01.05,0,.13-.01.51-.11.92-.29,1.15-.55,0,0,0-.01.01-.02.06-.08.12-.16.15-.25,0,0,0-.01,0-.02.01-.04.03-.08.03-.13.02-.1.05-.2.1-.31l.96-1.34s.03-.03.1-.1c.78-.77,1.93-1.59,3.38-2.28,1.54-.8,3.49-1.51,5.63-1.59h.01c.77-.09,1.6-.12,2.41-.12,1.34-.08,2.76-.17,4.13-.28h.03c3.44-.27,6.53-.56,7.04-.61.04,0,.07,0,.07,0,2.61-.38,7.21-1.06,9.74-1.47l9.67-1.2.72-.03c1.43-.03,2.62.05,3.51.31.98.14,2.04.33,3.31.39,3.34-.07,6.66-1.21,9.78-1.96h0c.06-.05.6-.44,2.3-.37.13,0,.25,0,.37,0,.07,0,.13,0,.21.02.06,0,.13.01.21.03.02,0,.04,0,.05,0l.53.13c.82.24,1.49.67,2.17,1.05,0,0,.01,0,.04.03.01,0,.03.02.04.03.12.08.35.21.69.33.03.01.06.03.09.03.8.32,1.69.42,2.87-.04l.34-.18c.37-.16.75-.36,1.16-.63.03-.02.06-.04.1-.06.06-.04.13-.08.21-.1h.03s.01-.01.01-.01c.28-.09.65-.07,1.09.02h0c3.67.98,7.35,3.11,11.56,2.02.06-.04.12-.06.12-.06.08-.11.15-.21.23-.31,0,0,0,0,0-.01,4.48-6,12.15-2.03,14.12-2.09l.45.76h0s1.3,3.33,1.3,3.33c.17.34.09.74.65.4h.01c.12-.06.24-.15.39-.25.5-.35,1.15-.89,1.79-1.42l1.77-1.34.04-.03c.35-.21.59-.27.64-.09.17.62.5.97.85,1.39h0s.67,1.07.67,1.07h0c.23.48.29,1,0,1.48l-5.21,3.82-.16.11s0,0,0,.01c-.08.07-.13.15-.15.21-.9,2.8-.61,4.03.19,4.83h.03c.26.28.59.48.94.67.01,0,.02.01.03.02.03.02.06.04.1.05.06.03.13.06.19.1h.01s0,0,.02.01c2.48,1.3,3.71,2.16,3.75,6.71-.09.6-.24,1.25-.47,1.95t0,.01h-.01s-1.77,2.32-1.77,2.32l-.03.03-.04.03-4.45,3.94-.03.03c-2.74,2.19-5.42,4.12-6.12,5.02-.03.05-.09.14-.13.22-.03.08-.06.17-.08.27-.11.49-.05,1.29.98,2.23t.01,0c.57.68,1.31,1.32,1.99,1.73.06.04.08.06.08.06.18.11.53-.01.97-.26h0l.03-.02c.36-.21.78-.48,1.22-.78h0s2.35-1.52,2.35-1.52h.03s.04-.03.04-.03l.28-.11.06-.02h.01c.13-.03.23-.03.32,0,1.02.4,1.41.96,1.77,2.27,0,.03.01.07.03.1.12.54.23,1.06.35,1.55.11.52.2,1.01.33,1.62v.03c.05.24.11.49.17.76.01.07.03.13.04.21.05.23.13.42.24.57,0,0,0,.01,0,.01.55.8,1.69.67,2.53.76,2.93,2.81,7.69,5.06,19.32,4.05.17.05.46.14.63.19l19.88,6.23c-3.68,5.43,4.52,11.4,9.64,12.29,7.28,1.62,17.81,4.46,21.4,5.45,1.46,1.76,2.88,2.97,4.26,3.73.11.06.22.12.32.18.15.08.3.15.48.22.12.05.24.1.36.14.26.1.51.19.77.26h0c.83.23,1.61.3,2.43.23l.25.03.22-.08c.91-.14,1.76-.46,2.55-.91h0c1.17-.67,2.19-1.62,3.04-2.72h0c.19-.24.36-.48.52-.73h.01s.01-.04.01-.04c1.43-2.2,2.51-5.07,1.84-7.45h0s-.03-.08-.08-.23l.8-10.68,6.73-4.5c4.59-1.31,11.61-1.37,22.21.93,0,0,.02,0,.03,0-.33,1.5-.04,2.57.65,3.34,0,0,.01.02.03.02,2.37,2.42,10.66,1.9,14.57,2.36.04,0,.08,0,.11,0,2.57.39,5.01.77,5.75,3.24.05.19.08.39.1.6,0,0-.06.02-.1.08.74.49,1.5.96,2.29,1.28h.02s.02.01.02.01c.76.31,1.56.48,2.43.37h.03c.55-.06,1.14-.24,1.75-.55.18-.08.36-.18.55-.3.22-.04.44-.06.67-.08h0l33.56,6.84,14.42-8.4c.33.59.73.92,1.19,1.05.01,0,.02,0,.03.01.28.08.57.1.88.06l.03.02.1-.04c1.01-.15,1.95-.65,2.92-1.08l9.17-.78c7.31,7.62,14.62,5.58,21.94.46l10.82,22.06-2.41,16.02-1.41,2.1c-.5.26-1.05.31-1.59.45l-.33.1-9.03-8.67-.3-1.25c.04-.46.11-.9-.34-1.41l-9.23-12.33-.82,5.02c1.74,2.85,5.3,8.67,7.05,11.54h0s.01.03.01.03c1.89,2.3,4.19,4.33,6.89,6.09l.1,4.13,20.59,34.03,6.53,5.36-2.11,1.21,2.13,9.48c1.84,1.9,4.32,3.36,6.78,4.81h0s.01.01.02.01c4.92,2.91,9.75,5.81,9.16,12.21l3.51,3.72c.95,5.72,4.03,24.44,4.42,26.81,0,0,0,0,.01,0,3.43,1.62,7.16,2.41,9.01,6.23.66.15,1.36.12,2.01.32,0,0,.01,0,.01,0,.62.21,1.19.62,1.68,1.6h0c4.58,4.66,8.78,11.68,9.39,21.97l5.12,7.41c.48,1.66.98,3.23,1.64,4,.16.17.78.74,1.5.3l-.64-3.49,4.01,4.65c.34.54.75,1.05,1.24,1.44l.42.92.58-.37.53-1.5.14-.09,2.34.46c.41.55.82,1.12,1.26,1.62.62.65,1.41,1.32,2.33,1.66.67.21,1.45.24,2.38.03,1.71,1.62,3.65,3.05,5.2,4.81l5.14,4.75c.33.21.62.46.86.8h0s0,0,0,.01c.34.18,10.66,6.04,14.38,13.82.35.59.63,1.25.8,1.98,0,.01,0,.03.01.04,0,0,0,.01,0,.04,0,.01,0,.03,0,.04.17.71.21,1.5.14,2.25v.02c-.06.61-.19,1.26-.4,1.94l-6.16,4.99s-.01.01-.01.01c.24-.06,2.39-.62,4.65-.13.83.18,1.66.49,2.43,1.03l.03-.05c.16.15.32.3.48.45.13.12.27.26.4.4.07.07.14.14.21.21.08.08.15.16.22.24,0,0,0,0,.01,0,1.43,1.52,2.73,3.24,4.1,4.85,0,0,0,0,.01.02,0,0,.01.01.02.03,1.46,1.71,3.01,3.29,4.9,4.37.03.02.06.04.09.05,2.19,1.24,4.84,1.8,8.33,1.14.74-.24,1.52-.55,2.32-.94l.27-.19,6.33-4.53,7.37,1,4.22-.8h0l3.16-1.96c.58-.53,2.38-2.2,2.93-2.7l3.99.73h.01l3.97-.3s0,0,.01,0l2.22-.76s.03-.01.04-.02l2.71-1.72c.2.06.42.09.65.1.57-.06,1.63-.28,3.61-.92.46-.17.94-.35,1.45-.51.36-.13.73-.25,1.11-.37.01,0,.03,0,.04-.01h.05c.64-.21,1.3-.39,1.98-.53h.04s0,0,0,0c.62-.13,1.25-.23,1.91-.29,0,0,.1-.01.28-.03.03,0,.06,0,.1-.01,2.91-.29,5.53-1.28,7.83-2.73.82-.51,1.59-1.1,2.3-1.72h0c.03-.12.94-2.82,7.55.18l.03,3.57-1.41,2.4,1.43,2,.11,3.64c.07,1.11.13,2.21.1,3.17Z"/>
      <path class="cls-4" d="M764.62,612.7s0-.01,0-.02l-3.17-34.51-6.13-6.64-3.54,2.93-1.34,8.58-1.64,2.31-2.12-.34-.07,2.07-3.04,3.34-3.09-2.56-.08,4.13-.48,2.54h-.07s-1.05-.1-1.05-.1l-2.13,3.43,3.52,2.63-2.84.55-2.32,1.68-1-1.56-1.25.13-3.04,3.04,3.38,3.08-2.33,2.5-3.06.12-.21-2.88h-.01l-1.14-.06h-.01l-1.41.58h-.01s-.03.03-.03.03c-.54.33-1.06.77-1.59,1.22l-.03.03-2.63,2.02,2.79,4.53-3.38.7-.06-.35-.8-4.37-6.25,1.11-4.14,3.26.35-3.09-.13-.64-3.7,4.08-6.07.23-.47,4.75-7.4,10.7,2.69,4.45,1.6,13.85v.04s.59,6.06.59,6.06l-3.87,8.29v.02s-5.87,8.73-5.89,8.76c-1.05.69-1.96,1.39-2.74,2.09l-3.31,4.22h-.01s-1.54,5.83-1.54,5.85v.02s0,.01,0,.01l-.51,5.5-.03.31.08.19,1.28,2.88.12.12,1.1,1.21h0s1.41,6.91,1.41,6.91l-1.03,5.32h0s-.18,3.26-.18,3.26l.26,2.91,1,3.22,1.68,2.61,1.88,1.81h.01s2.36,1.68,2.36,1.68l.11.07,2.81,1.9.03.02.03.02c.12.08,2.47,1.67,2.48,1.68.7-.06,2.41-.2,3.12-.26.44-.23.93-.56,1.38-.85l.41-.25,2.52-1.69c.36-.22.72-.42,1.09-.59l2.26-.7,1.69.03c.18.03.36.08.54.14h.01c.31.1.61.19.91.24.02,0,.11.03.13.03h.06c1.82.34,3.61-.14,5.25-.89l.64-.25.58-.31c7.97-16.97,24.16-51.43,32.08-68.27,1.34-4.29,2.81-9.82,4.11-14.16v-.04s.02-.01.02-.01l3.4-8.9c.19-.19,1.86-1.89,3.13-4.31.06-.1.12-.21.16-.31.19-.36.36-.73.49-1.11.02-.04.04-.08.05-.13.8-2.06,1.08-4.42-.07-6.67.05-.46.47-4.47.53-5.03v-.05s.1-.46.1-.46v-.03s.44-.86.44-.87l.71-.26s0,0,.02,0c0,0,.03,0,.04,0,.01,0,.04,0,.06.01.13.04.38.12.67.27.4.22.71.5,1.12.88l.98,4,1.32-.55.66-.69s0,0,.01,0c.1-.04.65-.36.21-2.38Z"/>
    </g>
    <text class="cls-5" transform="translate(837.03 465.54)"><tspan class="cls-12" x="0" y="0">P</tspan><tspan class="cls-2" x="130.37" y="0">O</tspan><tspan class="cls-6" x="282.05" y="0">LL</tspan><tspan class="cls-12" x="514.75" y="0">I</tspan><tspan class="cls-2" x="579.84" y="0">N</tspan><tspan class="cls-11" x="729.6" y="0">A</tspan><tspan class="cls-8" x="851.71" y="0">TION </tspan><tspan class="cls-6" x="1387" y="0">A</tspan><tspan class="cls-9" x="1522.93" y="0">F</tspan><tspan class="cls-1" x="1641.39" y="0">R</tspan><tspan class="cls-2" x="1774.25" y="0">I</tspan><tspan class="cls-7" x="1839.15" y="0">C</tspan><tspan class="cls-8" x="1978.35" y="0">A</tspan></text>
    <text class="cls-10" transform="translate(844.03 696.44)"><tspan x="0" y="0">SYMPOSIUM</tspan></text>
    <g>
      <g>
        <path class="cls-4" d="M2430.24,689.78v-1.65c0-20.62,9.27-37.4,34.91-56.07,16.72-12.22,21.78-16.44,21.78-26.79s-4.98-16.04-14.95-16.04c-11.6,0-15.79,7.11-17.42,17.41h-24.87c1.71-20.43,15.08-37.46,42.29-37.46,30.44,0,40.85,18.12,40.85,35.86s-7.42,25.59-29.22,40.89c-14.61,10.26-20.47,17-22.49,22.34h56.1l-3.21,21.5h-83.77Z"/>
        <path class="cls-4" d="M2639.83,629.82c0,32.57-10.35,62.12-45.51,62.12s-45.49-28.57-45.49-61.38,11.92-61.38,46.03-61.38,44.97,27.01,44.97,60.64ZM2575.39,630.26c0,21.77,2.48,41.15,19.25,41.15s18.5-18.12,18.5-41.44-2.78-40.27-18.25-40.27-19.49,14.91-19.49,40.56Z"/>
        <path class="cls-4" d="M2673.6,689.78v-1.65c0-20.62,9.27-37.4,34.91-56.07,16.72-12.22,21.78-16.44,21.78-26.79s-4.98-16.04-14.95-16.04c-11.6,0-15.79,7.11-17.42,17.41h-24.87c1.71-20.43,15.08-37.46,42.29-37.46,30.44,0,40.85,18.12,40.85,35.86s-7.42,25.59-29.22,40.89c-14.61,10.26-20.47,17-22.49,22.34h56.1l-3.2,21.5h-83.77Z"/>
        <path class="cls-4" d="M2852.45,600.17c-1.45-5.84-4.83-11.44-15.14-11.44-15.87,0-20,14.9-20.7,30.83,5-6.1,13.38-10.97,26.83-10.97,21.7,0,37.09,15.99,37.09,39.28,0,25.29-16.18,44.06-43.48,44.06-34.35,0-45.8-26.46-45.8-59.92,0-30.83,10.92-62.84,47.22-62.84,25.73,0,37.73,16.11,38.9,30.99h-24.91ZM2854.78,650c0-11.25-4.18-21.36-18.4-21.36-11.51,0-18.27,6.72-18.27,20.45,0,9.58,4.59,22.34,18.32,22.34,12.55,0,18.35-9.45,18.35-21.44Z"/>
      </g>
      <rect class="cls-3" x="2367.11" y="526.96" width="576" height="207.19" rx="58.01" ry="58.01"/>
    </g>
  </g>
</svg>