<?xml version="1.0" encoding="UTF-8"?>
<svg id="Layer_2" data-name="Layer 2" xmlns="http://www.w3.org/2000/svg" viewBox="0 0 170.3 121.86">
  <defs>
    <style>
      .cls-1 {
        font-family: Bahnschrift-Light, Bahnschrift;
        font-size: 14.75px;
        font-variation-settings: 'wght' 300, 'wdth' 100;
        font-weight: 300;
      }

      .cls-1, .cls-2 {
        fill: #215465;
      }

      .cls-3 {
        letter-spacing: 0em;
      }

      .cls-4 {
        letter-spacing: .04em;
      }

      .cls-5 {
        fill: #01bfbd;
      }

      .cls-6 {
        fill: #ffc736;
      }

      .cls-7 {
        letter-spacing: .02em;
      }

      .cls-8 {
        letter-spacing: 0em;
      }

      .cls-9 {
        letter-spacing: 0em;
      }

      .cls-10 {
        letter-spacing: .06em;
      }

      .cls-11 {
        letter-spacing: -.03em;
      }

      .cls-2 {
        font-family: Exo2-SemiBold, 'Exo 2';
        font-size: 29.61px;
        font-variation-settings: 'wght' 600;
        font-weight: 600;
      }

      .cls-12 {
        letter-spacing: -.06em;
      }

      .cls-13 {
        letter-spacing: .08em;
      }

      .cls-14 {
        letter-spacing: 0em;
      }

      .cls-15 {
        fill: #f3f3f3;
      }
    </style>
  </defs>
  <g id="Layer_1-2" data-name="Layer 1">
    <g>
      <g>
        <text class="cls-2" transform="translate(.08 98.69)"><tspan x="0" y="0">INN</tspan><tspan class="cls-3" x="50.59" y="0">O</tspan><tspan class="cls-11" x="70.49" y="0">V</tspan><tspan class="cls-12" x="88.02" y="0">A</tspan><tspan x="105.22" y="0">TIVE</tspan></text>
        <text class="cls-1" transform="translate(0 117.87)"><tspan class="cls-14" x="0" y="0">C</tspan><tspan class="cls-8" x="9.1" y="0">O</tspan><tspan class="cls-7" x="18.75" y="0">MM</tspan><tspan class="cls-9" x="42.27" y="0">U</tspan><tspan class="cls-7" x="52.06" y="0">N</tspan><tspan class="cls-10" x="62.65" y="0">I</tspan><tspan class="cls-13" x="67.56" y="0">T</tspan><tspan class="cls-7" x="75.79" y="0">Y </tspan><tspan class="cls-14" x="87.7" y="0">S</tspan><tspan class="cls-9" x="96.76" y="0">O</tspan><tspan class="cls-14" x="106.41" y="0">L</tspan><tspan class="cls-7" x="114.84" y="0">U</tspan><tspan class="cls-4" x="124.77" y="0">T</tspan><tspan class="cls-7" x="132.43" y="0">I</tspan><tspan class="cls-8" x="136.76" y="0">O</tspan><tspan class="cls-7" x="146.4" y="0">NS </tspan></text>
      </g>
      <g>
        <g>
          <path class="cls-5" d="M1.93,1.28v59.63h16.45V1.28H1.93Z"/>
          <path class="cls-5" d="M79.24,39.94l14.78,6.28c-.65,1.23-1.41,2.37-2.27,3.49-3,3.96-6.96,7.01-11.86,9.18-4.93,2.19-10.53,3.29-16.9,3.29-6.96,0-13.04-1.3-18.22-3.91-5.19-2.58-9.23-6.23-12.12-10.9-2.89-4.67-4.33-10.09-4.33-16.3s1.43-11.63,4.33-16.3c2.89-4.67,6.94-8.29,12.12-10.9,5.19-2.58,11.26-3.88,18.22-3.88,6.36,0,11.97,1.07,16.9,3.26,4.9,2.16,8.86,5.24,11.86,9.18.86,1.12,1.62,2.27,2.27,3.49l-14.81,6.31-4.28,1.83c-2.32-3.73-6.47-6.21-11.19-6.21-7.3,0-13.24,5.92-13.24,13.22s5.94,13.22,13.24,13.22c4.72,0,8.86-2.48,11.19-6.21l4.3,1.85Z"/>
          <path class="cls-5" d="M163.09,32.9c-1.54-2.27-4.02-4.07-7.4-5.37-3.39-1.28-7.93-2.19-13.58-2.74l-11.86-1.2c-3.39-.31-5.74-.89-7.01-1.75-1.3-.83-1.96-1.96-1.96-3.34,0-1.9,1.1-3.34,3.26-4.33,2.16-.96,5.11-1.46,8.81-1.46,2.76,0,5.14.26,7.09.83,1.96.55,3.49,1.36,4.64,2.37,1.15,1.04,1.83,2.27,2.03,3.7h16.69c-.21-3.91-1.62-7.38-4.25-10.32-2.61-2.97-6.15-5.27-10.61-6.88-4.46-1.62-9.54-2.42-15.25-2.42s-10.95.73-15.3,2.19c-4.38,1.46-7.77,3.6-10.19,6.47-2.4,2.87-3.62,6.36-3.62,10.51,0,5.08,1.88,9.13,5.58,12.12,3.7,3,9.67,4.85,17.89,5.61l11.13,1.02c3.75.39,6.31.99,7.64,1.83,1.33.86,1.98,2.06,1.98,3.6,0,2.01-1.17,3.52-3.49,4.56-2.35,1.04-5.53,1.56-9.54,1.56-2.92,0-5.45-.34-7.59-1.02-2.16-.65-3.86-1.59-5.14-2.82-1.28-1.23-2.03-2.63-2.32-4.28h-16.76c.16,4.12,1.56,7.77,4.22,10.92,2.63,3.15,6.31,5.58,11,7.3,4.69,1.72,10.12,2.61,16.27,2.61s11.24-.89,15.75-2.61c4.48-1.72,7.98-4.12,10.48-7.22,2.5-3.1,3.73-6.75,3.73-10.92,0-3.42-.76-6.23-2.29-8.53Z"/>
        </g>
        <g>
          <rect class="cls-15" x="56.18" y="46.19" width="15.02" height="1.7" rx=".85" ry=".85" transform="translate(127.38 94.09) rotate(-180)"/>
          <rect class="cls-15" x="56.18" y="49.85" width="15.02" height="1.7" rx=".85" ry=".85" transform="translate(127.38 101.4) rotate(-180)"/>
          <rect class="cls-15" x="59.73" y="53.91" width="7.92" height="1.7" rx=".85" ry=".85" transform="translate(127.38 109.52) rotate(-180)"/>
        </g>
        <g>
          <path class="cls-6" d="M44.76,30.54c0-1.01-.83-1.83-1.83-1.82s-1.82.83-1.81,1.84.83,1.83,1.83,1.82,1.82-.83,1.81-1.84Z"/>
          <path class="cls-6" d="M45.89,36.74c-.35-.95-1.4-1.43-2.34-1.08-.94.35-1.43,1.41-1.08,2.35.35.95,1.4,1.43,2.34,1.08.94-.35,1.43-1.41,1.08-2.35Z"/>
          <path class="cls-6" d="M79.15,18.91c.77-.65.86-1.81.21-2.58-.65-.77-1.8-.87-2.57-.21-.77.65-.86,1.81-.21,2.58.65.77,1.8.87,2.57.21Z"/>
          <path class="cls-6" d="M46.48,41.97c-.77.65-.86,1.81-.21,2.58.65.77,1.8.87,2.57.21.77-.65.86-1.81.21-2.58s-1.8-.87-2.57-.21Z"/>
          <path class="cls-6" d="M71.76,14.68c.88.5,1.99.19,2.49-.68.5-.88.19-2-.68-2.5-.87-.5-1.99-.19-2.49.68-.5.88-.19,2,.68,2.5Z"/>
          <path class="cls-6" d="M65.85,12.56c.99.17,1.93-.5,2.1-1.5.17-1-.5-1.94-1.49-2.11s-1.93.5-2.1,1.5c-.17,1,.5,1.94,1.49,2.11Z"/>
          <path class="cls-6" d="M59.58,12.59c.99-.18,1.65-1.14,1.47-2.13-.18-1-1.13-1.66-2.12-1.47s-1.65,1.14-1.47,2.13,1.13,1.66,2.12,1.47Z"/>
          <path class="cls-6" d="M53.7,14.78c.87-.51,1.16-1.63.65-2.51-.51-.87-1.63-1.17-2.49-.66-.87.51-1.16,1.63-.65,2.51.51.87,1.63,1.17,2.49.66Z"/>
          <path class="cls-6" d="M46.35,19.1c.78.65,1.92.54,2.57-.24.64-.78.54-1.93-.24-2.58-.78-.65-1.92-.54-2.57.24-.64.78-.54,1.93.24,2.58Z"/>
          <path class="cls-6" d="M43.49,25.44c.95.34,1.99-.16,2.33-1.11.34-.95-.15-2-1.1-2.34s-1.99.16-2.33,1.11c-.34.95.15,2,1.1,2.34Z"/>
        </g>
      </g>
    </g>
  </g>
</svg>